<?xml version="1.0" standalone="no"?>
<!DOCTYPE svg PUBLIC "-//W3C//DTD SVG 1.1//EN" "https://www.w3.org/Graphics/SVG/1.1/DTD/svg11.dtd">

<svg width="800" height="600" version="1.1" xmlns="http://www.w3.org/2000/svg">
	<ellipse stroke="black" stroke-width="1" fill="none" cx="118.5" cy="260.5" rx="30" ry="30"/>
	<text x="108.5" y="266.5" font-family="Times New Roman" font-size="20">S&#8320;</text>
	<ellipse stroke="black" stroke-width="1" fill="none" cx="200.5" cy="194.5" rx="30" ry="30"/>
	<text x="190.5" y="200.5" font-family="Times New Roman" font-size="20">S&#8321;</text>
	<ellipse stroke="black" stroke-width="1" fill="none" cx="200.5" cy="334.5" rx="30" ry="30"/>
	<text x="190.5" y="340.5" font-family="Times New Roman" font-size="20">S&#8323;</text>
	<ellipse stroke="black" stroke-width="1" fill="none" cx="335.5" cy="194.5" rx="30" ry="30"/>
	<text x="325.5" y="200.5" font-family="Times New Roman" font-size="20">S&#8322;</text>
	<ellipse stroke="black" stroke-width="1" fill="none" cx="335.5" cy="334.5" rx="30" ry="30"/>
	<text x="325.5" y="340.5" font-family="Times New Roman" font-size="20">S&#8324;</text>
	<ellipse stroke="black" stroke-width="1" fill="none" cx="426.5" cy="260.5" rx="30" ry="30"/>
	<text x="416.5" y="266.5" font-family="Times New Roman" font-size="20">S&#8325;</text>
	<ellipse stroke="black" stroke-width="1" fill="none" cx="732.5" cy="260.5" rx="30" ry="30"/>
	<text x="722.5" y="266.5" font-family="Times New Roman" font-size="20">S&#8328;</text>
	<ellipse stroke="black" stroke-width="1" fill="none" cx="732.5" cy="260.5" rx="24" ry="24"/>
	<ellipse stroke="black" stroke-width="1" fill="none" cx="521.5" cy="334.5" rx="30" ry="30"/>
	<text x="511.5" y="340.5" font-family="Times New Roman" font-size="20">S&#8326;</text>
	<ellipse stroke="black" stroke-width="1" fill="none" cx="645.5" cy="334.5" rx="30" ry="30"/>
	<text x="635.5" y="340.5" font-family="Times New Roman" font-size="20">S&#8327;</text>
	<polygon stroke="black" stroke-width="1" points="46.5,260.5 88.5,260.5"/>
	<text x="3.5" y="266.5" font-family="Times New Roman" font-size="20">Start</text>
	<polygon fill="black" stroke-width="1" points="88.5,260.5 80.5,255.5 80.5,265.5"/>
	<polygon stroke="black" stroke-width="1" points="141.87,241.69 177.13,213.31"/>
	<polygon fill="black" stroke-width="1" points="177.13,213.31 167.763,214.431 174.033,222.221"/>
	<text x="164.5" y="248.5" font-family="Times New Roman" font-size="20">&#949;</text>
	<polygon stroke="black" stroke-width="1" points="140.772,280.599 178.228,314.401"/>
	<polygon fill="black" stroke-width="1" points="178.228,314.401 175.639,305.329 168.939,312.753"/>
	<text x="145.5" y="318.5" font-family="Times New Roman" font-size="20">&#949;</text>
	<polygon stroke="black" stroke-width="1" points="230.5,194.5 305.5,194.5"/>
	<polygon fill="black" stroke-width="1" points="305.5,194.5 297.5,189.5 297.5,199.5"/>
	<text x="263.5" y="215.5" font-family="Times New Roman" font-size="20">a</text>
	<polygon stroke="black" stroke-width="1" points="230.5,334.5 305.5,334.5"/>
	<polygon fill="black" stroke-width="1" points="305.5,334.5 297.5,329.5 297.5,339.5"/>
	<text x="263.5" y="355.5" font-family="Times New Roman" font-size="20">b</text>
	<polygon stroke="black" stroke-width="1" points="358.776,315.573 403.224,279.427"/>
	<polygon fill="black" stroke-width="1" points="403.224,279.427 393.863,280.595 400.172,288.354"/>
	<text x="386.5" y="318.5" font-family="Times New Roman" font-size="20">&#949;</text>
	<polygon stroke="black" stroke-width="1" points="359.785,212.113 402.215,242.887"/>
	<polygon fill="black" stroke-width="1" points="402.215,242.887 398.674,234.142 392.803,242.237"/>
	<text x="367.5" y="248.5" font-family="Times New Roman" font-size="20">&#949;</text>
	<polygon stroke="black" stroke-width="1" points="450.167,278.935 497.833,316.065"/>
	<polygon fill="black" stroke-width="1" points="497.833,316.065 494.594,307.204 488.449,315.093"/>
	<text x="460.5" y="318.5" font-family="Times New Roman" font-size="20">&#949;</text>
	<path stroke="black" stroke-width="1" fill="none" d="M 443.989,236.169 A 178.285,178.285 0 0 1 715.011,236.169"/>
	<polygon fill="black" stroke-width="1" points="715.011,236.169 713.613,226.839 706.012,233.337"/>
	<text x="575.5" y="164.5" font-family="Times New Roman" font-size="20">&#949;</text>
	<path stroke="black" stroke-width="1" fill="none" d="M 541.332,312.285 A 71.389,71.389 0 0 1 625.668,312.285"/>
	<polygon fill="black" stroke-width="1" points="625.668,312.285 622.166,303.525 616.259,311.594"/>
	<text x="579.5" y="289.5" font-family="Times New Roman" font-size="20">c</text>
	<polygon stroke="black" stroke-width="1" points="668.352,315.063 709.648,279.937"/>
	<polygon fill="black" stroke-width="1" points="709.648,279.937 700.315,281.312 706.794,288.929"/>
	<text x="694.5" y="318.5" font-family="Times New Roman" font-size="20">&#949;</text>
	<path stroke="black" stroke-width="1" fill="none" d="M 627.693,358.341 A 67.922,67.922 0 0 1 539.307,358.341"/>
	<polygon fill="black" stroke-width="1" points="539.307,358.341 542.128,367.343 548.635,359.749"/>
	<text x="579.5" y="395.5" font-family="Times New Roman" font-size="20">&#949;</text>
</svg>