<svg version="1.1" viewBox="0.0 0.0 600.0 371.0" fill="none" stroke="none" stroke-linecap="square" stroke-miterlimit="10" width="600" height="215" xmlns:xlink="http://www.w3.org/1999/xlink" xmlns="http://www.w3.org/2000/svg"><path fill="#ffffff" d="M0 0L600.0 0L600.0 371.0L0 371.0L0 0Z" fill-rule="nonzero"/><path fill="#ea4335" d="M212.3221 43.42647C238.67528 27.163124 269.0325 18.55 300.0 18.55L300.0 185.5Z" fill-rule="nonzero"/><path fill="#4285f4" d="M300.0 18.55C383.3153 18.55 453.8775 79.97531 465.35754 162.49591C476.8376 245.01651 425.72095 323.36945 345.56934 346.11053C265.4177 368.8516 180.76875 329.01883 147.20049 252.76523C113.63221 176.51163 141.42123 87.18156 212.3221 43.42647L300.0 185.5Z" fill-rule="nonzero"/><path fill="#1a1a1a" d="M21.89375 29.55L21.89375 25.909374L18.58125 20.95625L19.971874 20.95625L21.659374 23.55Q22.128124 24.26875 22.534374 25.003124Q22.925 24.33125 23.471874 23.4875L25.14375 20.95625L26.45625 20.95625L23.034374 25.909374L23.034374 29.55L21.89375 29.55ZM30.596874 27.55L31.690624 27.675Q31.440624 28.628124 30.7375 29.159374Q30.034374 29.690624 28.95625 29.690624Q27.596874 29.690624 26.784374 28.846874Q25.9875 28.003124 25.9875 26.4875Q25.9875 24.925 26.8 24.065624Q27.6125 23.190624 28.89375 23.190624Q30.14375 23.190624 30.925 24.034374Q31.721874 24.878124 31.721874 26.425Q31.721874 26.51875 31.721874 26.70625L27.08125 26.70625Q27.14375 27.7375 27.659374 28.284374Q28.175 28.815624 28.95625 28.815624Q29.534374 28.815624 29.940624 28.51875Q30.3625 28.20625 30.596874 27.55ZM27.14375 25.846874L30.6125 25.846874Q30.55 25.05 30.221874 24.659374Q29.70625 24.05 28.909374 24.05Q28.175 24.05 27.675 24.534374Q27.190624 25.01875 27.14375 25.846874ZM32.925 27.690624L33.95625 27.534374Q34.05 28.159374 34.440624 28.4875Q34.846874 28.815624 35.58125 28.815624Q36.3 28.815624 36.64375 28.534374Q37.003124 28.2375 37.003124 27.83125Q37.003124 27.471874 36.690624 27.26875Q36.471874 27.128124 35.6125 26.909374Q34.45625 26.6125 34.003124 26.409374Q33.565624 26.190624 33.33125 25.815624Q33.096874 25.440624 33.096874 24.971874Q33.096874 24.565624 33.284374 24.20625Q33.471874 23.846874 33.8 23.6125Q34.05 23.440624 34.471874 23.315624Q34.89375 23.190624 35.39375 23.190624Q36.1125 23.190624 36.659374 23.409374Q37.221874 23.6125 37.4875 23.971874Q37.753124 24.33125 37.846874 24.925L36.815624 25.065624Q36.753124 24.596874 36.409374 24.33125Q36.08125 24.05 35.45625 24.05Q34.7375 24.05 34.425 24.3Q34.1125 24.534374 34.1125 24.8625Q34.1125 25.065624 34.2375 25.221874Q34.378124 25.39375 34.64375 25.503124Q34.8 25.565624 35.58125 25.76875Q36.70625 26.08125 37.14375 26.26875Q37.58125 26.45625 37.83125 26.815624Q38.08125 27.175 38.08125 27.721874Q38.08125 28.253124 37.76875 28.721874Q37.471874 29.175 36.89375 29.440624Q36.315624 29.690624 35.58125 29.690624Q34.3625 29.690624 33.721874 29.190624Q33.096874 28.675 32.925 27.690624Z" fill-rule="nonzero"/><path fill="#9e9e9e" d="M20.675 41.89375Q20.01875 41.64375 19.690624 41.20625Q19.378124 40.753124 19.378124 40.14375Q19.378124 39.20625 20.05 38.565624Q20.7375 37.925 21.846874 37.925Q22.971874 37.925 23.659374 38.58125Q24.346874 39.2375 24.346874 40.175Q24.346874 40.76875 24.034374 41.20625Q23.721874 41.64375 23.08125 41.89375Q23.878124 42.14375 24.284374 42.721874Q24.690624 43.3 24.690624 44.096874Q24.690624 45.190624 23.909374 45.940624Q23.14375 46.690624 21.8625 46.690624Q20.596874 46.690624 19.815624 45.940624Q19.034374 45.190624 19.034374 44.065624Q19.034374 43.221874 19.45625 42.659374Q19.89375 42.096874 20.675 41.89375ZM20.45625 40.096874Q20.45625 40.70625 20.846874 41.096874Q21.253124 41.4875 21.878124 41.4875Q22.4875 41.4875 22.878124 41.1125Q23.26875 40.721874 23.26875 40.159374Q23.26875 39.58125 22.8625 39.190624Q22.45625 38.784374 21.8625 38.784374Q21.253124 38.784374 20.846874 39.175Q20.45625 39.565624 20.45625 40.096874ZM20.128124 44.065624Q20.128124 44.51875 20.33125 44.940624Q20.55 45.3625 20.971874 45.596874Q21.39375 45.83125 21.878124 45.83125Q22.628124 45.83125 23.1125 45.346874Q23.6125 44.8625 23.6125 44.1125Q23.6125 43.346874 23.1125 42.846874Q22.6125 42.346874 21.846874 42.346874Q21.096874 42.346874 20.6125 42.846874Q20.128124 43.33125 20.128124 44.065624ZM26.64375 46.55L26.64375 45.346874L27.846874 45.346874L27.846874 46.55L26.64375 46.55ZM30.675 41.89375Q30.01875 41.64375 29.690624 41.20625Q29.378124 40.753124 29.378124 40.14375Q29.378124 39.20625 30.05 38.565624Q30.7375 37.925 31.846874 37.925Q32.971874 37.925 33.659374 38.58125Q34.346874 39.2375 34.346874 40.175Q34.346874 40.76875 34.034374 41.20625Q33.721874 41.64375 33.08125 41.89375Q33.878124 42.14375 34.284374 42.721874Q34.690624 43.3 34.690624 44.096874Q34.690624 45.190624 33.909374 45.940624Q33.14375 46.690624 31.8625 46.690624Q30.596874 46.690624 29.815624 45.940624Q29.034374 45.190624 29.034374 44.065624Q29.034374 43.221874 29.45625 42.659374Q29.89375 42.096874 30.675 41.89375ZM30.45625 40.096874Q30.45625 40.70625 30.846874 41.096874Q31.253124 41.4875 31.878124 41.4875Q32.4875 41.4875 32.878124 41.1125Q33.26875 40.721874 33.26875 40.159374Q33.26875 39.58125 32.8625 39.190624Q32.45625 38.784374 31.8625 38.784374Q31.253124 38.784374 30.846874 39.175Q30.45625 39.565624 30.45625 40.096874ZM30.128124 44.065624Q30.128124 44.51875 30.33125 44.940624Q30.55 45.3625 30.971874 45.596874Q31.39375 45.83125 31.878124 45.83125Q32.628124 45.83125 33.1125 45.346874Q33.6125 44.8625 33.6125 44.1125Q33.6125 43.346874 33.1125 42.846874Q32.6125 42.346874 31.846874 42.346874Q31.096874 42.346874 30.6125 42.846874Q30.128124 43.33125 30.128124 44.065624ZM36.253124 40.01875Q36.253124 39.096874 36.70625 38.45625Q37.175 37.815624 38.05 37.815624Q38.8625 37.815624 39.39375 38.39375Q39.925 38.971874 39.925 40.08125Q39.925 41.175 39.378124 41.76875Q38.846874 42.346874 38.065624 42.346874Q37.284374 42.346874 36.76875 41.76875Q36.253124 41.190624 36.253124 40.01875ZM38.08125 38.534374Q37.690624 38.534374 37.425 38.878124Q37.175 39.221874 37.175 40.128124Q37.175 40.95625 37.425 41.3Q37.690624 41.628124 38.08125 41.628124Q38.4875 41.628124 38.7375 41.284374Q39.003124 40.940624 39.003124 40.05Q39.003124 39.20625 38.7375 38.878124Q38.471874 38.534374 38.08125 38.534374ZM38.08125 46.8625L42.784374 37.815624L43.64375 37.815624L38.95625 46.8625L38.08125 46.8625ZM41.8 44.534374Q41.8 43.6125 42.253124 42.971874Q42.721874 42.33125 43.6125 42.33125Q44.425 42.33125 44.95625 42.909374Q45.4875 43.471874 45.4875 44.596874Q45.4875 45.690624 44.940624 46.284374Q44.409374 46.8625 43.6125 46.8625Q42.846874 46.8625 42.315624 46.284374Q41.8 45.70625 41.8 44.534374ZM43.64375 43.05Q43.2375 43.05 42.971874 43.39375Q42.721874 43.7375 42.721874 44.64375Q42.721874 45.45625 42.9875 45.8Q43.253124 46.14375 43.64375 46.14375Q44.034374 46.14375 44.3 45.8Q44.565624 45.45625 44.565624 44.55Q44.565624 43.721874 44.3 43.39375Q44.034374 43.05 43.64375 43.05Z" fill-rule="nonzero"/><path stroke="#757575" stroke-width="1.0" stroke-linecap="butt" d="M18.55 34.05L127.05 34.05L256.70914 32.920006" fill-rule="nonzero"/><path fill="#9e9e9e" d="M258.70914 32.920006C258.70914 31.815437 257.81372 30.920006 256.70914 30.920006C255.60457 30.920006 254.70914 31.815437 254.70914 32.920006C254.70914 34.024574 255.60457 34.920006 256.70914 34.920006C257.81372 34.920006 258.70914 34.024574 258.70914 32.920006" fill-rule="nonzero"/><path fill="#1a1a1a" d="M566.3719 332.45L566.3719 323.85626L567.52814 323.85626L572.04376 330.60626L572.04376 323.85626L573.1375 323.85626L573.1375 332.45L571.96564 332.45L567.45 325.7L567.45 332.45L566.3719 332.45ZM574.85626 329.34064Q574.85626 327.60626 575.8094 326.77814Q576.60626 326.09064 577.7625 326.09064Q579.04376 326.09064 579.85626 326.9344Q580.6844 327.7625 580.6844 329.2469Q580.6844 330.45 580.325 331.1375Q579.96564 331.825 579.2625 332.21564Q578.575 332.59064 577.7625 332.59064Q576.46564 332.59064 575.65314 331.7625Q574.85626 330.91876 574.85626 329.34064ZM575.9344 329.34064Q575.9344 330.52814 576.45 331.1219Q576.98126 331.71564 577.7625 331.71564Q578.5594 331.71564 579.075 331.1219Q579.59064 330.52814 579.59064 329.3094Q579.59064 328.15314 579.0594 327.5594Q578.54376 326.96564 577.7625 326.96564Q576.98126 326.96564 576.45 327.5594Q575.9344 328.1375 575.9344 329.34064Z" fill-rule="nonzero"/><path fill="#9e9e9e" d="M547.10626 347.46564L548.1219 347.3719Q548.2469 348.09064 548.60626 348.41876Q548.98126 348.73126 549.54376 348.73126Q550.02814 348.73126 550.3875 348.5125Q550.7625 348.27814 550.9969 347.91876Q551.23126 347.54376 551.3875 346.91876Q551.54376 346.27814 551.54376 345.6219Q551.54376 345.54376 551.54376 345.40314Q551.23126 345.90314 550.6844 346.23126Q550.1375 346.54376 549.4969 346.54376Q548.41876 346.54376 547.6844 345.77814Q546.95 344.9969 546.95 343.73126Q546.95 342.41876 547.71564 341.6219Q548.4969 340.825 549.65314 340.825Q550.48126 340.825 551.16876 341.27814Q551.8719 341.73126 552.23126 342.575Q552.59064 343.40314 552.59064 344.98126Q552.59064 346.6219 552.23126 347.60626Q551.8875 348.575 551.16876 349.09064Q550.46564 349.59064 549.52814 349.59064Q548.5125 349.59064 547.8719 349.04376Q547.23126 348.48126 547.10626 347.46564ZM551.41876 343.66876Q551.41876 342.7625 550.9344 342.23126Q550.46564 341.7 549.77814 341.7Q549.075 341.7 548.54376 342.27814Q548.02814 342.84064 548.02814 343.7625Q548.02814 344.575 548.52814 345.09064Q549.02814 345.60626 549.7469 345.60626Q550.48126 345.60626 550.95 345.09064Q551.41876 344.575 551.41876 343.66876ZM557.91876 349.45L556.8719 349.45L556.8719 342.73126Q556.48126 343.09064 555.85626 343.46564Q555.2469 343.825 554.7625 343.9969L554.7625 342.98126Q555.6375 342.5594 556.29376 341.98126Q556.96564 341.3875 557.2469 340.825L557.91876 340.825L557.91876 349.45ZM561.54376 349.45L561.54376 348.2469L562.7469 348.2469L562.7469 349.45L561.54376 349.45ZM569.4969 348.4344L569.4969 349.45L563.8094 349.45Q563.8094 349.075 563.9344 348.71564Q564.15314 348.1375 564.6219 347.575Q565.10626 347.0125 566.0125 346.27814Q567.41876 345.1219 567.90314 344.45Q568.40314 343.77814 568.40314 343.1844Q568.40314 342.5594 567.95 342.1375Q567.4969 341.7 566.77814 341.7Q566.0125 341.7 565.5594 342.15314Q565.10626 342.60626 565.09064 343.41876L564.0125 343.3094Q564.1219 342.09064 564.84064 341.46564Q565.575 340.825 566.8094 340.825Q568.04376 340.825 568.7625 341.5125Q569.48126 342.2 569.48126 343.21564Q569.48126 343.73126 569.2625 344.23126Q569.0594 344.71564 568.5594 345.27814Q568.075 345.825 566.95 346.77814Q565.9969 347.575 565.71564 347.8719Q565.45 348.15314 565.27814 348.4344L569.4969 348.4344ZM571.15314 342.91876Q571.15314 341.9969 571.60626 341.35626Q572.075 340.71564 572.95 340.71564Q573.7625 340.71564 574.29376 341.29376Q574.825 341.8719 574.825 342.98126Q574.825 344.075 574.27814 344.66876Q573.7469 345.2469 572.96564 345.2469Q572.1844 345.2469 571.66876 344.66876Q571.15314 344.09064 571.15314 342.91876ZM572.98126 341.4344Q572.59064 341.4344 572.325 341.77814Q572.075 342.1219 572.075 343.02814Q572.075 343.85626 572.325 344.2Q572.59064 344.52814 572.98126 344.52814Q573.3875 344.52814 573.6375 344.1844Q573.90314 343.84064 573.90314 342.95Q573.90314 342.10626 573.6375 341.77814Q573.3719 341.4344 572.98126 341.4344ZM572.98126 349.7625L577.6844 340.71564L578.54376 340.71564L573.85626 349.7625L572.98126 349.7625ZM576.7 347.4344Q576.7 346.5125 577.15314 345.8719Q577.6219 345.23126 578.5125 345.23126Q579.325 345.23126 579.85626 345.8094Q580.3875 346.3719 580.3875 347.4969Q580.3875 348.59064 579.84064 349.1844Q579.3094 349.7625 578.5125 349.7625Q577.7469 349.7625 577.21564 349.1844Q576.7 348.60626 576.7 347.4344ZM578.54376 345.95Q578.1375 345.95 577.8719 346.29376Q577.6219 346.6375 577.6219 347.54376Q577.6219 348.35626 577.8875 348.7Q578.15314 349.04376 578.54376 349.04376Q578.9344 349.04376 579.2 348.7Q579.46564 348.35626 579.46564 347.45Q579.46564 346.6219 579.2 346.29376Q578.9344 345.95 578.54376 345.95Z" fill-rule="nonzero"/><path stroke="#757575" stroke-width="1.0" stroke-linecap="butt" d="M581.45 336.95L472.95 336.95L343.29086 338.08" fill-rule="nonzero"/><path fill="#9e9e9e" d="M345.29086 338.08C345.29086 336.97543 344.39542 336.08 343.29086 336.08C342.18628 336.08 341.29086 336.97543 341.29086 338.08C341.29086 339.18457 342.18628 340.08 343.29086 340.08C344.39542 340.08 345.29086 339.18457 345.29086 338.08" fill-rule="nonzero"/></svg>